<?xml version="1.0" encoding="utf-8"?>
<svg viewBox="0 0 500 500" xmlns="http://www.w3.org/2000/svg">
  <defs>
    <radialGradient id="gradient-0" gradientUnits="userSpaceOnUse" cx="256.52" cy="216.305" r="167.211" spreadMethod="pad" gradientTransform="matrix(1.308641, 0, 0, 1.24504, -79.172712, -53.003311)">
      <stop offset="0" style="stop-color: rgb(255, 255, 255);"/>
      <stop offset="1" style="stop-color: rgba(255, 255, 255, 0);"/>
    </radialGradient>
  </defs>
  <circle cx="256.52" cy="216.305" r="167.211" style="fill: url(#gradient-0);"/>
  <path d="M 239.224 512.01 C 239.224 512.01 219.872 542.038 219.92 476.585 L 220.008 357.575 L 216.488 354.726 C 211.355 350.569 210.029 351.217 212.013 356.914 C 214.08 362.841 212.548 393.79 210.066 396.272 C 208.986 397.349 207.505 396.934 205.625 395.027 C 202.941 392.303 202.958 392.047 206.012 389.784 C 208.605 387.863 209.342 385.037 209.844 375.083 C 210.457 362.939 208.114 350.258 205.257 350.258 C 199.889 350.258 193.488 370.416 193.178 388.303 C 192.996 398.907 192.474 401.34 190.295 401.76 C 186.466 402.499 183.014 395.627 186.045 393.299 C 187.297 392.337 189.216 386.228 190.307 379.725 C 191.401 373.22 193.695 363.753 195.405 358.688 C 197.115 353.623 198.252 349.215 197.932 348.895 C 196.476 347.439 184.974 352.698 179.93 357.129 C 172.31 363.816 165.811 375.238 166.769 380.25 C 167.752 385.392 164.14 388.742 160.699 385.884 C 157.741 383.429 157.559 380.02 160.293 378.27 C 161.406 377.56 163.564 374.276 165.09 370.975 C 171.19 357.777 186.531 345.528 197.076 345.434 C 200.64 345.402 200.804 345.137 198.615 342.945 C 192.145 336.478 170.465 340.889 169.33 348.904 C 168.627 353.873 162.527 354.158 161.827 349.256 C 161.445 346.573 163.125 344.892 169.559 341.527 C 180.487 335.814 189.848 334.624 197.784 337.941 C 201.207 339.37 204.222 340.541 204.485 340.541 C 206.069 340.541 208.777 320.132 210.425 295.758 C 212.148 270.291 212.074 267.103 209.663 263.023 C 208.194 260.538 206.56 256.034 206.027 253.014 C 205.495 249.994 204.796 247.261 204.474 246.939 C 202.881 245.346 196.756 250.85 187.381 262.298 C 176.129 276.036 162.376 289.76 147.111 302.485 C 141.769 306.939 137.357 311.206 137.308 311.967 C 137.258 312.729 139.149 315.644 141.51 318.444 C 148.084 326.242 150.205 332.893 149.879 344.704 C 149.578 355.651 147.267 359.335 143.233 355.302 C 141.828 353.895 142.103 352.076 144.35 347.903 C 147.94 341.235 146.901 330.595 142.051 324.347 L 138.908 320.298 L 138.872 330.214 C 138.83 341.655 135.286 350.762 126.733 361.415 C 123.591 365.326 121.023 369.203 121.023 370.03 C 121.023 370.857 119.382 371.301 117.38 371.016 C 111.91 370.24 112.25 362.606 117.785 361.851 C 120.011 361.546 123.164 360.106 124.791 358.652 C 130.06 353.941 135.6 339.978 135.571 331.477 C 135.535 319.932 133.533 317.974 129.931 325.962 C 126.094 334.473 107.267 353.89 103.549 353.175 C 99.075 352.314 100.102 346.298 104.829 345.676 C 109.342 345.082 123.258 332.403 126.817 325.641 C 128.084 323.235 129.12 319.402 129.12 317.118 C 129.12 312.967 129.12 312.967 123.185 315.447 C 114.792 318.954 92.191 337.476 91.578 341.35 C 90.755 346.539 84.698 345.558 84.073 340.136 C 83.682 336.731 84.253 335.676 86.503 335.659 C 88.12 335.645 95.275 330.895 102.4 325.102 C 109.525 319.309 117.375 314.126 119.841 313.582 C 126.892 312.029 126.679 309.975 119.112 306.541 C 106.944 301.018 92.745 303.025 82.918 311.651 C 79.672 314.503 76.264 316.199 74.866 315.663 C 71.937 314.538 71.61 308.229 74.466 307.965 C 78.294 307.612 79.744 307.138 86.206 304.125 C 95.752 299.673 114.802 299.779 123.909 304.331 L 130.844 307.799 L 129.801 304.331 C 128.011 298.392 121.051 292.388 113.508 290.275 C 108.072 288.753 105.809 288.711 104.417 290.103 C 101.077 293.443 96.732 292.299 96.732 288.084 C 96.732 283.667 100.401 281.609 104.487 283.736 C 106.012 284.529 110.256 285.973 113.92 286.949 C 122.493 289.225 128.927 294.341 131.766 301.138 C 133.007 304.104 134.579 306.533 135.259 306.533 C 137.266 306.533 158.46 288.659 168.042 278.884 C 181.913 264.735 189.006 255.867 189.969 251.475 C 190.456 249.248 191.852 245.138 193.073 242.341 C 195.14 237.606 195.022 237.001 191.382 233.582 C 189.232 231.563 187.031 228.514 186.489 226.81 C 185.186 222.704 178.4 223.768 152.602 232.114 C 130.57 239.243 113.519 243.366 105.944 243.399 C 103.103 243.411 99.158 243.856 97.176 244.388 C 94.049 245.225 93.817 245.814 95.434 248.819 C 97.889 253.383 98.06 276.256 95.66 279.174 C 94.638 280.416 93.551 283.255 93.242 285.481 C 92.822 288.521 91.573 289.658 88.23 290.042 C 84.403 290.482 83.777 289.974 83.777 286.429 C 83.777 283.409 84.833 282.038 87.719 281.314 C 90.201 280.691 92.299 278.492 93.386 275.375 C 95.462 269.417 95.615 256.395 93.645 253.284 C 92.148 250.921 91.753 251.713 89.641 261.288 C 88.12 268.188 79.38 278.703 72.063 282.436 C 68.269 284.371 64.356 287.059 63.369 288.41 C 60.759 291.978 55.896 289.611 56.539 285.083 C 56.964 282.084 58.126 281.402 63.056 281.263 C 66.355 281.169 70.955 279.846 73.278 278.324 C 79.525 274.231 87.016 261.519 87.016 255.012 L 87.016 249.469 L 81.753 253.478 C 74.291 259.158 64.836 263.633 55.437 265.931 C 50.984 267.019 44.978 269.028 42.09 270.397 C 36.032 273.264 31.473 272.19 32.261 268.078 C 32.676 265.915 34.581 265.171 40.266 264.954 C 44.367 264.797 50.906 263.813 54.793 262.764 C 68.488 259.077 86.958 247.214 84.697 243.555 C 82.078 239.319 57.808 243.973 53.711 249.498 C 51.273 252.785 45.722 251.329 45.722 247.403 C 45.722 245.021 46.982 244.054 50.579 243.679 C 53.251 243.399 59.032 242.122 63.423 240.845 C 67.815 239.565 74.251 238.519 77.727 238.519 C 86.296 238.519 85.055 235.609 74.103 230.017 C 62.688 224.187 46.81 223.662 41.883 228.95 C 38.116 232.994 32.766 232.469 32.766 228.053 C 32.766 225.48 34.653 224.56 43.293 222.914 C 58.361 220.046 71.877 222.554 81.753 230.05 C 87.845 234.675 88.141 234.117 83.948 225.904 C 79.785 217.747 76.056 214.69 65.912 211.118 C 59.164 208.741 56.45 208.464 53.415 209.848 C 48.921 211.895 46.391 209.441 47.727 204.332 C 48.549 201.192 53.72 200.113 55.346 202.742 C 55.844 203.55 60.236 205.464 65.106 206.996 C 78.522 211.216 86.5 218.904 89.808 230.798 L 92.525 240.572 L 105.559 239.599 C 119.112 238.585 151.929 230.488 160.55 226.031 C 170.376 220.949 180.939 210.47 180.939 205.8 C 180.94 201.998 180.137 201.286 174.867 200.405 C 152.913 196.737 117.487 184.131 101.224 174.199 L 95.191 170.513 L 92.546 175.771 C 88.43 183.957 77.356 194.54 71.768 195.629 C 69.02 196.166 65.112 197.424 63.081 198.428 C 60.099 199.901 58.866 199.728 56.662 197.523 C 54.104 194.966 54.106 194.623 56.698 192.031 C 58.858 189.871 59.891 189.695 61.419 191.222 C 65.375 195.178 72.268 193.401 79.764 186.491 C 88.103 178.806 89.441 175.034 81.933 180.38 C 77.847 183.29 74.593 184.012 65.334 184.061 C 44.484 184.174 35.792 181.308 40.343 175.821 C 42.698 172.986 48.151 173.191 48.151 176.116 C 48.151 179.704 53.505 181.84 62.513 181.84 C 71.935 181.84 78.264 179.756 83.372 174.972 C 88.311 170.344 88.005 169.611 80.943 169.152 C 68.928 168.374 54.281 162.878 45.097 155.706 C 42.973 154.049 39.461 152.692 37.293 152.692 C 34.13 152.692 33.453 151.969 33.867 149.048 C 34.388 145.391 41.673 142.581 41.673 146.038 C 41.673 151.968 67.121 165.331 81.178 166.781 C 88.441 167.531 90.254 167.251 90.254 165.381 C 90.254 159.797 73.356 148.182 63.534 147.012 C 61.753 146.8 59.748 146.535 59.081 146.419 C 58.412 146.305 57.867 144.734 57.867 142.923 C 57.867 138.136 62.613 136.944 65.766 140.94 C 67.21 142.771 72.037 146.085 76.49 148.304 C 80.943 150.524 85.975 153.877 87.671 155.756 C 92.298 160.874 93.493 159.966 93.493 151.326 C 93.493 139.491 81.471 120.24 73.525 119.349 C 71.593 119.132 69.465 118.893 68.798 118.818 C 66.416 118.554 67.632 112.533 70.273 111.52 C 73.12 110.426 82.892 120.001 91.489 132.303 C 95.392 137.89 95.915 140.132 95.917 151.322 C 95.921 158.507 96.581 163.794 97.443 163.512 C 101.615 162.143 105.47 153.771 106.131 144.649 C 106.8 135.39 106.638 134.87 102.591 133.331 C 97.981 131.578 97.098 128.215 100.509 125.387 C 102.104 124.062 103.457 124.176 105.711 125.822 C 108.267 127.692 108.764 130.254 108.815 141.812 C 108.875 154.895 108.623 155.891 103.725 161.998 L 98.572 168.421 L 108.125 174.07 C 113.38 177.18 128.005 183.227 140.626 187.509 C 159.835 194.027 164.086 194.975 166.712 193.335 C 168.439 192.257 173.504 190.942 177.971 190.414 C 184.334 189.659 186.453 188.651 187.774 185.753 C 189.739 181.441 186.376 176.106 174.719 165.036 C 164.81 155.627 147.686 134.754 137.293 119.419 L 128.462 106.39 L 120.619 111.667 C 111.204 118.004 105.538 119.19 92.684 117.509 C 84.476 116.437 82.968 115.738 82.968 113.008 C 82.968 108.48 89.227 107.939 93.394 112.106 C 97.647 116.36 103.723 116.291 112.926 111.883 L 120.214 108.39 L 110.497 107.251 C 95.651 105.512 88.748 101.758 78.109 89.629 C 77.218 88.613 75.032 86.764 73.251 85.518 C 70.221 83.4 70.187 83.077 72.72 80.505 C 76.252 76.921 80.539 78.652 80.539 83.667 C 80.539 89.349 94.71 101.732 102.73 103.057 C 111.133 104.446 119.417 104.366 119.34 102.895 C 119.307 102.226 116.974 100.224 114.16 98.441 C 111.344 96.66 105.889 91.195 102.038 86.297 C 98.188 81.397 93.558 75.871 91.75 74.014 C 88.824 71.008 88.737 70.414 90.959 68.571 C 94.474 65.651 98.929 67.717 97.868 71.775 C 96.94 75.327 105.972 87.997 113.852 94.195 C 118.403 97.775 125.393 100.278 126.829 98.842 C 130.004 95.668 108.926 59.791 102.972 58.236 C 98.248 57 99.69 51.48 104.734 51.48 C 107.57 51.48 108.952 52.627 109.762 55.655 C 110.376 57.953 114.617 65.605 119.187 72.66 C 123.755 79.715 127.941 87.854 128.487 90.75 C 129.032 93.644 130.062 96.012 130.775 96.012 C 131.486 96.012 133.591 92.868 135.452 89.023 C 141.31 76.927 139.4 54.438 132.188 50.577 C 128.603 48.66 128.103 43.31 131.391 42.047 C 134.702 40.776 139.549 44.856 138.371 47.923 C 137.827 49.342 138.489 52.722 139.842 55.434 C 145.033 65.838 142.031 89.627 134.476 97.977 C 132.04 100.666 132.093 100.871 135.222 100.871 C 143.729 100.871 156.554 81.508 151.822 75.809 C 149.119 72.551 150.901 68.483 155.031 68.483 C 158.966 68.483 161.108 72.768 158.483 75.393 C 157.474 76.401 156.65 78.569 156.65 80.207 C 156.65 84.364 151.218 94.567 146.943 98.441 C 144.977 100.224 140.887 102.409 137.852 103.3 L 132.336 104.92 L 140.689 117.792 C 156.89 142.761 177.334 165.005 185.604 166.66 C 188.259 167.19 192.019 169.316 193.96 171.382 C 197.371 175.013 197.676 175.052 202.98 172.522 C 205.999 171.083 208.54 169.129 208.627 168.179 C 209.094 163.051 208.039 152.082 206.029 141.163 C 202.716 123.154 201.543 101.53 203.243 89.809 L 204.73 79.558 L 195.491 80.63 C 184.448 81.913 174.489 79.349 169.379 73.911 C 167.412 71.816 164.47 70.103 162.844 70.103 C 159.674 70.103 159.053 67.452 161.369 63.793 C 163.098 61.061 167.985 62.587 167.985 65.858 C 167.985 72.433 184.077 79.795 193.356 77.466 C 197.523 76.42 197.356 76.214 189.211 72.314 C 180.56 68.176 172.398 58.258 170.076 49.067 C 169.516 46.848 168.054 44.03 166.83 42.805 C 164.18 40.157 164.729 37.771 168.533 35.4 C 172.055 33.205 174.738 36.858 173.432 42.068 C 171.127 51.249 181.709 67.194 192.004 70.053 C 199.957 72.263 201.125 72.149 198.832 69.386 C 195.717 65.635 190.764 47.5 189.737 36.095 C 189.217 30.306 187.986 23.913 187.003 21.892 C 185.158 18.094 186.299 15.726 190.445 14.753 C 192.194 14.344 192.755 17.825 193.102 31.237 C 193.575 49.552 197.496 63.757 203.604 69.286 C 206.661 72.052 206.829 71.992 208.588 67.483 C 211.175 60.852 209.382 41.407 205.822 37.473 C 203.228 34.607 203.217 34.177 205.662 31.729 C 207.835 29.558 208.752 29.453 210.797 31.151 C 212.385 32.469 212.802 34.082 211.952 35.603 C 211.217 36.916 211.241 41.753 212.004 46.354 C 212.766 50.953 212.945 58.179 212.397 62.41 C 211.214 71.588 212.908 72.207 219.713 65.083 C 227.541 56.893 232.441 37.875 228.618 30.509 C 227.334 28.034 226.283 24.999 226.283 23.763 C 226.283 21.436 232.013 20.596 233.301 22.735 C 233.702 23.403 233.453 30.212 232.747 37.869 C 231.298 53.584 227.16 63.53 219.194 70.441 C 212.805 75.984 216.153 76.253 227.249 71.086 C 237.217 66.444 242.421 58.89 243.88 46.935 C 244.733 39.946 245.454 38.524 248.145 38.524 C 251.615 38.524 253.809 45.403 250.925 47.247 C 250.071 47.794 247.099 52.76 244.32 58.284 C 238.36 70.14 229.124 76.627 216.481 77.842 C 209.25 78.536 208.551 78.989 207.5 83.659 C 205.686 91.724 206.197 119.745 208.462 136.498 C 210.101 148.609 211.588 153.517 215.446 159.574 L 220.35 167.266 L 229.967 167.266 C 237.859 167.266 240.442 166.541 244.392 163.218 C 247.038 160.991 250.066 159.169 251.122 159.169 C 254.07 159.169 271.45 126.292 276.68 110.814 C 282.813 92.673 282.757 91.946 275.202 91.747 C 267.37 91.543 259.463 87.458 255.962 81.809 C 254.456 79.378 251.511 75.503 249.418 73.2 C 243.85 67.068 247.041 60.924 253.627 65.096 C 255.063 66.005 255.51 67.949 254.871 70.501 C 254.11 73.534 255.121 75.935 259.107 80.545 C 263.533 85.665 265.598 86.73 272.438 87.43 L 280.534 88.257 L 274.847 83.43 C 265.878 75.813 261.458 65.187 260.21 48.245 C 259.141 33.719 259.976 30.596 264.472 32.321 C 267.84 33.614 268.42 37.449 265.666 40.205 C 261.383 44.488 263.828 62.091 270.052 71.793 C 278.05 84.258 278.812 84.33 281.178 72.877 C 282.321 67.344 284.205 60.546 285.364 57.772 C 286.524 54.997 286.889 51.782 286.177 50.629 C 284.305 47.603 286.069 44.192 289.503 44.192 C 293.504 44.192 295.509 50.672 292.099 52.58 C 287.116 55.369 281.576 84.677 286.033 84.677 C 287.984 84.677 296.916 74.384 299.755 68.865 C 304.521 59.599 308.709 42.824 307.742 36.866 C 306.847 31.344 307.039 30.985 310.645 31.497 C 314.622 32.062 316.978 37.31 314.078 39.139 C 313.203 39.692 310.863 45.973 308.876 53.098 C 304.614 68.389 302.423 72.972 295.719 80.605 L 290.723 86.297 L 296.821 86.297 C 309.833 86.297 323.447 73.512 323.447 61.296 C 323.447 56.013 323.878 55.364 327.073 55.819 C 331.61 56.467 332.711 61.395 329.116 64.97 C 327.622 66.458 324.826 70.518 322.9 73.998 C 318.39 82.146 313.381 85.7 302.564 88.426 C 292.889 90.863 294.495 92.79 306.169 92.75 C 314.717 92.719 320.435 89.844 323.13 84.223 C 325.148 80.018 331.544 77.9 331.544 81.438 C 331.544 84.656 332.028 85.521 335 87.602 C 338.63 90.144 338.968 95.302 335.592 96.597 C 329.91 98.779 334.673 117.022 342.52 123.137 C 346.354 126.123 348.086 125.599 346.175 122.028 C 343.719 117.439 344.132 99.08 346.866 91.331 C 348.167 87.644 350.926 82.269 352.998 79.388 C 355.071 76.507 356.739 73.058 356.705 71.721 C 356.666 70.193 358.144 69.292 360.691 69.292 C 363.657 69.292 364.878 70.268 365.257 72.936 C 365.65 75.701 364.972 76.58 362.444 76.58 C 355.301 76.58 347.152 95.727 348.026 110.46 C 348.616 120.385 350.912 122.425 354.321 116.054 C 355.594 113.676 362.103 106.977 368.784 101.17 C 375.467 95.363 381.457 89.276 382.096 87.644 C 383.356 84.43 386.095 83.893 389.671 86.157 C 392.622 88.024 390.768 92.758 387.057 92.828 C 380.209 92.958 354.214 118.102 354.214 124.595 C 354.214 128.244 361.314 127.066 371.395 121.744 C 382.94 115.649 387.886 111.321 388.539 106.74 C 389.306 101.361 395.379 102.182 396.02 107.753 C 396.424 111.259 395.864 112.206 393.386 112.206 C 391.654 112.206 389.327 113.302 388.216 114.643 C 384.947 118.58 368.436 127.945 362.555 129.194 C 349.879 131.889 367.481 136.792 382.511 134.752 C 391.069 133.59 403.387 127.428 401.916 125.046 C 401.565 124.481 402.272 122.664 403.481 121.008 C 405.351 118.451 406.078 118.324 408.288 120.158 C 412.603 123.738 411.299 126.229 402.777 130.685 C 387.537 138.655 372.708 140.758 361.586 136.53 C 356.339 134.535 357.569 137.556 364.121 142.758 C 369.497 147.028 379.919 149.975 382.497 147.957 C 385.609 145.521 399.687 146.288 400.709 148.95 C 401.819 151.848 398.173 154.56 394.643 153.465 C 392.069 152.667 377.025 166.882 374.039 172.934 C 373.16 174.715 371.933 179.676 371.312 183.955 L 370.181 191.74 L 376.367 187.864 C 379.77 185.732 386.005 182.681 390.222 181.084 C 394.44 179.486 398.721 177.181 399.732 175.96 C 402.171 173.023 405.905 173.141 407.077 176.192 C 408.545 180.02 404.621 183.574 400.162 182.454 C 395.485 181.28 380.901 187.987 375.399 193.843 L 371.665 197.819 L 377.661 198.945 C 380.96 199.563 387.156 199.655 391.428 199.148 C 400.701 198.051 419.611 189.814 421.786 185.926 C 423.96 182.043 431.136 183.234 431.136 187.48 C 431.136 189.888 429.719 190.931 425.468 191.644 C 422.351 192.168 417.367 193.871 414.395 195.428 C 408.007 198.78 390.085 202.797 380.934 202.929 L 374.457 203.026 L 381.429 209.331 C 386.987 214.359 390.106 215.847 396.812 216.677 C 405.373 217.736 414.132 215.699 414.132 212.647 C 414.132 211.736 415.59 210.989 417.371 210.989 C 419.71 210.989 420.61 212.068 420.61 214.873 C 420.61 218.481 419.831 218.835 409.678 219.852 C 397.682 221.054 386.65 218.371 377.807 212.098 C 374.916 210.047 373.586 209.647 374.404 211.076 C 381.12 222.811 392.632 230.915 397.201 227.122 C 399.986 224.809 404.416 226.186 404.416 229.363 C 404.416 234.998 400.236 235.33 390.243 230.491 C 379.324 225.201 373.377 218.536 370.309 208.156 C 369.191 204.369 368.094 201.273 367.874 201.273 C 367.652 201.273 362.652 203.435 356.761 206.077 C 337.489 214.726 330.704 216.125 304.824 216.785 C 270.464 217.663 272.184 217.3 268.541 224.449 C 265.89 229.649 265.766 230.761 267.745 231.521 C 269.036 232.015 271.932 235.559 274.181 239.396 C 277.282 244.688 281.571 248.353 291.95 254.577 C 305.057 262.437 326.713 271.82 340.451 275.588 C 349.077 277.957 348.847 278.019 350.117 272.931 C 353.55 259.173 362.964 252.146 382.058 249.089 C 399.199 246.344 402.185 247.31 397.227 253.998 C 395.243 256.673 394.401 256.839 391.581 255.117 C 387.096 252.379 374.52 252.558 368.948 255.441 C 364.334 257.825 353.481 269.095 354.662 270.274 C 355.016 270.631 357.651 269.752 360.514 268.323 C 367.301 264.938 382.659 263.597 389.842 265.762 C 404.093 270.059 408.465 272.277 408.465 275.209 C 408.465 279.575 401.752 280.129 400.401 275.873 C 398.912 271.179 383.909 266.982 373.895 268.457 C 365.903 269.634 355.834 273.693 355.834 275.737 C 355.834 276.41 358.366 277.372 361.462 277.874 C 366.272 278.654 381.793 284.543 389.842 288.639 C 393.324 290.414 393.793 295.027 390.611 296.245 C 388.834 296.929 386.711 295.86 384.419 293.128 C 379.902 287.742 365.441 280.624 359.018 280.624 C 354.585 280.624 354.115 281.05 355.022 284.267 C 357.376 292.606 386.526 312.396 394.284 310.917 C 398.494 310.115 401.964 313.479 400.598 317.038 C 399.453 320.022 395.34 320.25 393.564 317.43 C 392.853 316.297 386.638 312.622 379.754 309.26 C 372.542 305.741 363.793 299.795 359.106 295.231 C 350.532 286.878 350.094 287.049 350.914 298.434 C 351.702 309.378 361.534 322.727 368.808 322.727 C 370.361 322.727 372.568 323.856 373.714 325.237 C 375.435 327.312 375.328 328.218 373.099 330.447 C 370.577 332.968 369.704 332.419 359.978 322.203 C 351.052 312.827 349.292 309.975 347.702 302.318 C 346.682 297.402 346.25 292.331 346.742 291.051 C 348.691 285.967 344.18 289.084 341.987 294.336 C 338.189 303.426 338.924 312.501 343.825 317.043 C 348.717 321.578 348.447 326.554 343.267 327.293 C 340.249 327.723 339.639 327.046 339.631 323.244 C 339.626 320.734 338.843 315.871 337.89 312.441 C 335.859 305.119 338.329 292.044 343.009 285.365 L 345.927 281.2 L 334.282 277.504 C 319.629 272.853 295.228 261.374 284.171 253.928 C 279.522 250.797 274.679 248.235 273.41 248.235 C 272.139 248.235 267.995 246.416 264.199 244.191 C 253.774 238.081 252.529 239.401 253.043 256.022 C 253.371 266.66 254.622 273.284 258.163 283.15 C 262.87 296.265 277.122 323.432 283.076 330.639 C 286.215 334.442 286.32 334.455 289.646 331.45 C 292.412 328.948 295.577 328.395 307.143 328.399 C 320.195 328.402 321.792 328.769 328.25 333.257 C 332.093 335.927 336.773 338.998 338.653 340.082 C 341.831 341.915 342.151 342.694 341.503 347.018 C 340.965 350.594 334.829 348.571 333.801 344.481 C 331.574 335.612 311.688 327.772 299.835 331.092 C 293.645 332.826 293.588 332.907 297.537 334.397 C 310.014 339.106 319.437 344.955 322.968 350.181 C 335.913 369.343 337.357 373.738 330.712 373.738 C 328.248 373.738 327.463 372.604 327.363 368.881 C 327.209 363.275 321.934 352.283 317.546 348.421 C 312.595 344.064 301.204 338.921 296.508 338.921 L 292.113 338.921 L 295.527 342.565 C 297.404 344.569 301.162 350.945 303.876 356.735 C 306.592 362.524 309.739 368.578 310.868 370.188 C 312.595 372.655 312.433 373.479 309.848 375.4 C 305.714 378.47 303.879 376.974 304.176 370.782 C 304.642 361.117 290.788 337.431 287.606 342.452 C 282.823 349.994 292.431 384.368 301.017 390.427 C 305.562 393.639 304.914 398.839 299.966 398.839 C 297.306 398.839 295.917 397.933 295.917 396.206 C 295.917 394.757 293.271 386.957 290.036 378.874 C 286.379 369.733 283.847 360.319 283.336 353.977 C 282.465 343.125 281.697 342.121 277.705 346.614 C 269.866 355.432 267.396 375.65 273.25 383.092 C 277.936 389.048 274.82 394.921 268.991 391.12 C 267.987 390.467 267.167 387.747 267.168 385.074 C 267.168 382.402 267.003 375.966 266.799 370.773 C 266.499 363.114 267.327 359.522 271.181 351.745 C 273.794 346.473 275.62 342.161 275.238 342.161 C 274.857 342.161 272.248 343.277 269.442 344.643 C 262.529 348.006 258.077 354.539 257.958 361.494 C 257.845 368.086 256.224 371.31 253.017 371.31 C 249.56 371.31 248.097 364.605 251.076 362.427 C 252.46 361.415 254.83 357.494 256.342 353.714 C 258.476 348.381 260.951 345.776 267.384 342.088 C 271.944 339.471 276.949 337.325 278.509 337.316 C 282.368 337.295 282.077 335.286 277.165 328.062 C 268.994 316.041 258.974 295.784 253.705 280.624 C 250.764 272.161 247.034 263.502 245.417 261.376 C 243.801 259.252 242.477 255.792 242.477 253.685 C 242.477 251.359 241.522 249.855 240.048 249.855 C 237.935 249.855 237.62 257.232 237.62 306.533 C 237.62 361.557 237.71 363.212 240.763 363.212 C 242.491 363.212 244.36 363.948 244.915 364.846 C 246.685 367.708 243.993 372.929 240.748 372.929 C 237.669 372.929 239.224 512.01 239.224 512.01 Z M 221.425 350.445 C 221.425 349.658 219.925 348.623 218.095 348.143 C 215.361 347.429 215.105 347.686 216.673 349.574 C 218.81 352.15 221.425 352.63 221.425 350.445 Z M 221.425 296.818 C 221.425 255.919 221.062 248.235 219.124 248.235 C 215.731 248.235 214.608 255.857 214.249 281.301 C 214.07 293.842 212.603 312.748 210.987 323.311 C 207.761 344.4 208.012 345.325 216.972 345.373 L 221.425 345.399 L 221.425 296.818 Z M 328.528 211.894 C 338.53 209.773 363.931 200.255 363.931 198.627 C 363.931 198.228 362.37 195.793 360.463 193.214 C 358.499 190.558 356.673 185.145 356.248 180.729 C 354.89 166.594 362.702 148.889 367.191 155.93 C 369.72 159.898 369.024 162.398 364.961 163.943 C 360.339 165.699 359.069 168.628 359.078 177.518 C 359.084 183.88 363.934 194.809 366.741 194.785 C 367.422 194.779 368.051 191.191 368.136 186.809 C 368.341 176.589 371.029 169.906 378.685 160.581 C 382.071 156.46 384.387 152.635 383.832 152.08 C 383.278 151.526 379.835 151.072 376.181 151.072 C 368.125 151.072 359.319 145.567 354.247 137.361 C 352.303 134.214 350.226 131.656 349.63 131.674 C 349.033 131.694 344.904 135.052 340.451 139.135 C 328.778 149.838 307.996 164.653 295.576 171.128 C 285.106 176.586 268.363 188.143 268.412 189.877 C 268.425 190.356 269.409 194.027 270.6 198.035 C 272.681 205.041 273.1 205.404 281.507 207.464 C 286.314 208.644 291.316 210.648 292.62 211.917 C 295.727 214.945 314.189 214.933 328.528 211.894 Z M 266.402 176.975 C 269.319 175.198 274.259 173.743 277.378 173.743 C 287.483 173.743 313.262 158.107 337.006 137.578 C 345.416 130.306 346.165 129.184 343.484 127.89 C 341.815 127.087 338.334 123.91 335.748 120.833 C 331.753 116.082 330.875 113.299 329.912 102.354 C 329.29 95.267 328.394 89.083 327.922 88.612 C 327.451 88.141 324.329 89.613 320.981 91.884 C 313.866 96.712 301.007 97.506 291.853 93.681 L 286.272 91.348 L 284.459 98.134 C 280.857 111.607 271.646 132.825 261.214 151.678 C 255.362 162.252 250.574 171.213 250.574 171.593 C 250.574 172.475 259.22 180.105 260.291 180.163 C 260.736 180.189 263.486 178.754 266.402 176.975 Z" id="path2597" transform="matrix(0.866025, 0.5, -0.5, 0.866025, 164.437529, -80.082204)" style="fill: rgb(0, 123, 53);"/>
</svg>